<svg id="Layer_1" data-name="Layer 1" xmlns="http://www.w3.org/2000/svg" viewBox="0 0 1356.42 1747.82"><defs><style>.cls-1{fill:#1f9d60;}</style></defs><path class="cls-1" d="M842.27,721.09a105.92,105.92,0,0,1-133.22,58.16L630.34,904.07l-.05,0a105.23,105.23,0,0,1,31.82,48.49l147.32-13.16h.05a105.74,105.74,0,0,1,184-60.11l92.27-56.89a105,105,0,0,1-7.63-37.56c0-2.43,0-4.81.15-7.19Zm488.59,746.58c47.13-42,103.69-107,137.79-197.31,66.67-176.66,43.3-307.41,20.8-392.24S1402,660.79,1244.38,556.86c0,0-75.17-49.36-327.24-158.44S632.62,177.59,611.63,126.09c0,0-79,87.46-139.2,203.48S380.5,536.94,359.12,618.91a1157.78,1157.78,0,0,0-36.92,321c3.45,128.18,46.74,258.05,92.94,334.23S534.62,1462.33,729.74,1557s404.68,40.42,519.54-30L1120,1317.35a104.44,104.44,0,0,1-37.71,7.67,105.76,105.76,0,0,1-103.68-77l-145.67,12.2h0a105.79,105.79,0,1,1-66.62-106.46v0l77.26-125.64A105.4,105.4,0,0,1,813,979l0,.09-146.29,12.2h0a105.76,105.76,0,1,1-107.38-113,104.64,104.64,0,0,1,39.11,6.76l77.55-125.21A105.78,105.78,0,1,1,850.68,677.8c.05,2.52,0,5.05-.15,7.53l235.65,57.13a105.79,105.79,0,1,1,99.6,146.35c-2.28.05-4.61,0-6.85-.15l-57.77,233a105.78,105.78,0,0,1,30.17,176l129.44,209.55,228.31,366.69c159.32-53.69,169.13-183.56,169.13-183.56C1459.13,1605.47,1330.86,1467.67,1330.86,1467.67ZM829.15,1223.23l.05,0,145.71-12.58H975a105.79,105.79,0,0,1,103.54-97.13,85.74,85.74,0,0,1,8.65.25l55.15-233.41a106.34,106.34,0,0,1-37.61-27.16L1013.05,911a105.77,105.77,0,0,1-136.82,137.51L797.47,1172.9A105.18,105.18,0,0,1,829.15,1223.23Z" transform="translate(-321.79 -126.09)"/></svg>